<svg id="fa8810b2-3465-47f9-aaa5-6ddd42ed9c2b" data-name="Layer 1" xmlns="http://www.w3.org/2000/svg" xmlns:xlink="http://www.w3.org/1999/xlink" width="2014.074" height="1050" viewBox="0 0 2014.074 1050">
  <defs>
    <clipPath id="ad6a8a0a-28f7-454a-81e1-5dcc50dcbfa2" transform="translate(-0.39 0)">
      <rect x="593" width="1007" height="1050" style="fill: none"/>
    </clipPath>
  </defs>
  <g style="clip-path: url(#ad6a8a0a-28f7-454a-81e1-5dcc50dcbfa2)">
    <g>
      <g id="eef8340a-273b-44bc-885d-b523a333b166" data-name="ooTxmD.tif" style="opacity: 0.61">
        <image id="b46fc601-9d79-4f7c-bf46-08fad0cb1e4d" data-name="Layer 0" width="1134" height="1630" transform="translate(592.61 0.038) scale(0.644)" xlink:href="Cover%20Page%20Landscape1.png"/>
      </g>
      <g id="a8667fd7-dee3-4290-801e-12f955edff64" data-name="ooTxmD.tif" style="opacity: 0.61">
        <image id="eb7bcd54-1661-4597-a68a-143b651a8ba2" data-name="Layer 0" width="1134" height="1630" transform="matrix(-0.644, 0, 0, 0.644, 2014.074, 0)" xlink:href="Cover%20Page%20Landscape2.png"/>
      </g>
    </g>
  </g>
  <rect y="0.038" width="592.61" height="1049.962" style="fill: #bc2126"/>
  <text x="750" y="600" fill="#be0000" font-size="40px" font-family="Red Hat Medium"
    >_Course_Title_</text>
  <text x="750" y="800" fill="#000000" font-size="24px" font-family="Red Hat Medium"
    >Product Name 1.0 skeleton</text>
  <text x="750" y="950" fill="#be0000" font-size="20px" font-family="Red Hat Medium"
    >Student Workbook</text>
  <text x="750" y="1000" fill="#000000" font-size="20px" font-family="Red Hat Medium"
    >Edition 1</text>
  <g>
    <path d="M171.107.038v48.62a11.8,11.8,0,0,1-11.8,11.8H1" transform="translate(-0.39 0)" style="fill: none;stroke: #fff;stroke-miterlimit: 10;stroke-width: 2px"/>
    <line x1="265.663" y1="0.038" x2="265.663" y2="115.386" style="fill: none;stroke: #fff;stroke-miterlimit: 10;stroke-width: 2px"/>
    <path d="M.39,155.405H159.484a11.623,11.623,0,0,1,11.623,11.623v325.79" transform="translate(-0.39 0)" style="fill: none;stroke: #fff;stroke-miterlimit: 10;stroke-width: 2px"/>
    <path d="M117.749,532.052h-28.6a12.207,12.207,0,0,1-12.207-12.207V450.052a12.161,12.161,0,0,1,12.161-12.161H253.651a12.4,12.4,0,0,0,12.4-12.4V194.639" transform="translate(-0.39 0)" style="fill: none;stroke: #fff;stroke-miterlimit: 10;stroke-width: 2px"/>
    <rect x="127.559" y="503.804" width="93.377" height="55.712" style="fill: none;stroke: #fff;stroke-miterlimit: 10;stroke-width: 2px"/>
    <rect x="218.975" y="127.157" width="93.377" height="55.712" style="fill: none;stroke: #fff;stroke-miterlimit: 10;stroke-width: 2px"/>
    <path d="M171.5,571.286v45.045a11.452,11.452,0,0,1-11.452,11.452H.39" transform="translate(-0.39 0)" style="fill: none;stroke: #fff;stroke-miterlimit: 10;stroke-width: 2px"/>
    <g>
      <path d="M233.1,532.052h23.918a9.039,9.039,0,0,1,9.039,9.039v395.69a9.771,9.771,0,0,0,9.77,9.771H559.149" transform="translate(-0.39 0)" style="fill: none;stroke: #fff;stroke-miterlimit: 10;stroke-width: 2px"/>
      <polygon points="555.84 956.523 573.11 946.553 555.84 936.58 555.84 956.523" style="fill: #fff"/>
    </g>
    <circle cx="149.264" cy="175.491" r="11.015" style="fill: none;stroke: #fff;stroke-miterlimit: 10;stroke-width: 2px"/>
    <circle cx="100.312" cy="459.411" r="11.015" style="fill: none;stroke: #fff;stroke-miterlimit: 10;stroke-width: 2px"/>
    <circle cx="243.251" cy="416.333" r="11.015" style="fill: none;stroke: #fff;stroke-miterlimit: 10;stroke-width: 2px"/>
  </g>
  <g>
    <path d="M751.753,516.325h18.219v2.838h-7.5V537.69H759.27V519.163h-7.517Z" transform="translate(-0.39 0)"/>
    <path d="M770.826,522.156h3.052v1.983a4.862,4.862,0,0,1,4.284-2.321,3.851,3.851,0,0,1,1.558.247v2.746a5.21,5.21,0,0,0-1.8-.337,4.252,4.252,0,0,0-4.029,2.837V537.69h-3.063Z" transform="translate(-0.39 0)"/>
    <path d="M780.724,533.233c0-2.935,2.379-4.73,6.285-4.73a10.963,10.963,0,0,1,4.243.854V527.71c0-2.2-1.312-3.3-3.785-3.3a11.046,11.046,0,0,0-4.821,1.315l-1.13-2.28a14.551,14.551,0,0,1,6.379-1.585c4.029,0,6.347,1.984,6.347,5.555v10.27h-2.99v-1.329a7.369,7.369,0,0,1-4.821,1.617C783.042,537.963,780.724,536.041,780.724,533.233Zm6.408,2.473a5.965,5.965,0,0,0,4.108-1.467v-2.685a8.094,8.094,0,0,0-3.982-.945c-2.23,0-3.6,1.007-3.6,2.562C783.652,534.668,785.058,535.706,787.132,535.706Z" transform="translate(-0.39 0)"/>
    <path d="M797.417,517.76a1.875,1.875,0,0,1,1.857-1.893h0a1.893,1.893,0,1,1,0,3.786h0a1.875,1.875,0,0,1-1.86-1.89Zm3.386,19.93h-3.051V522.156H800.8Z" transform="translate(-0.39 0)"/>
    <path d="M804.4,522.156h3.051v1.555a6.4,6.4,0,0,1,4.669-1.861,5.8,5.8,0,0,1,6.074,6.072v9.768h-3.063v-9.255a3.614,3.614,0,0,0-3.844-3.935,4.4,4.4,0,0,0-3.847,2.013v11.171h-3.052Z" transform="translate(-0.39 0)"/>
    <path d="M821.37,517.76a1.875,1.875,0,0,1,1.858-1.893h.006a1.893,1.893,0,1,1-1.864,1.9Zm3.389,19.93h-3.051V522.156h3.051Z" transform="translate(-0.39 0)"/>
    <path d="M828.36,522.156h3.052v1.555a6.4,6.4,0,0,1,4.668-1.861,5.8,5.8,0,0,1,6.074,6.072v9.768H839.1v-9.255a3.615,3.615,0,0,0-3.847-3.935,4.4,4.4,0,0,0-3.844,2.013v11.171H828.36Z" transform="translate(-0.39 0)"/>
    <path d="M844.959,529.847a7.838,7.838,0,0,1,7.708-7.966c.056,0,.112,0,.168,0a7.629,7.629,0,0,1,4.607,1.555v-1.279h3.023V537.9c0,4.029-2.536,6.289-7.113,6.289a13.184,13.184,0,0,1-6.256-1.526l1.191-2.38a10.487,10.487,0,0,0,4.974,1.341c2.717,0,4.152-1.282,4.152-3.724v-1.74a7.31,7.31,0,0,1-4.639,1.664A7.833,7.833,0,0,1,844.959,529.847Zm8.181,5.308a5.517,5.517,0,0,0,4.273-1.8v-7.019a5.606,5.606,0,0,0-4.273-1.8,5.311,5.311,0,0,0,0,10.62Z" transform="translate(-0.39 0)"/>
    <path d="M869.649,533.233c0-2.935,2.38-4.73,6.286-4.73a10.963,10.963,0,0,1,4.243.854V527.71c0-2.2-1.312-3.3-3.786-3.3a11.046,11.046,0,0,0-4.821,1.315l-1.13-2.28a14.551,14.551,0,0,1,6.38-1.585c4.029,0,6.347,1.984,6.347,5.555v10.27h-2.99v-1.329a7.373,7.373,0,0,1-4.822,1.617C871.967,537.963,869.649,536.041,869.649,533.233Zm6.409,2.473a5.967,5.967,0,0,0,4.108-1.467v-2.685a8.085,8.085,0,0,0-4-.945c-2.23,0-3.6,1.007-3.6,2.562.012,1.5,1.417,2.535,3.492,2.535Z" transform="translate(-0.39 0)"/>
    <path d="M886.677,522.156h3.052v1.555a6.4,6.4,0,0,1,4.668-1.861,5.8,5.8,0,0,1,6.075,6.072v9.768H897.42v-9.255a3.615,3.615,0,0,0-3.847-3.935,4.4,4.4,0,0,0-3.844,2.013v11.171h-3.052Z" transform="translate(-0.39 0)"/>
    <path d="M915.883,536.223a7.339,7.339,0,0,1-4.763,1.711,8.011,8.011,0,1,1,4.731-14.487v-7.122l3.051-.672V537.69h-3.019Zm-4.334-.945a5.582,5.582,0,0,0,4.3-1.854v-7.043a5.678,5.678,0,0,0-4.3-1.831,5.365,5.365,0,0,0,0,10.728Z" transform="translate(-0.39 0)"/>
    <g>
      <path d="M944.323,531.86,946.429,534a11.755,11.755,0,0,1-8.544,3.694,11.019,11.019,0,1,1,0-22.034,11.594,11.594,0,0,1,8.606,3.691l-2.136,2.2a8.491,8.491,0,0,0-6.47-2.934,8.057,8.057,0,0,0,.1,16.112A8.292,8.292,0,0,0,944.323,531.86Z" transform="translate(-0.39 0)"/>
      <path d="M956.042,537.628a8,8,0,0,1-8.148-8.057,7.8,7.8,0,0,1,7.782-7.993c4.272,0,7.506,3.538,7.506,8.116v.88H950.916a5.233,5.233,0,0,0,5.25,4.46,6.05,6.05,0,0,0,3.935-1.358l1.954,1.922A9.258,9.258,0,0,1,956.042,537.628Zm-5.1-9.337h9.217a4.634,4.634,0,0,0-9.217,0Z" transform="translate(-0.39 0)"/>
      <path d="M966.081,521.821h3.052V523.8a4.859,4.859,0,0,1,4.272-2.321,3.834,3.834,0,0,1,1.558.246v2.747a5.234,5.234,0,0,0-1.8-.338,4.25,4.25,0,0,0-4.028,2.838v10.379h-3.052Z" transform="translate(-0.39 0)"/>
      <path d="M979.538,524.383h-3.295v-2.562h3.295v-3.967l3.022-.734v4.7h4.578v2.562h-4.563V532.8c0,1.587.64,2.165,2.289,2.165a5.956,5.956,0,0,0,2.227-.367v2.565a10.045,10.045,0,0,1-2.9.458c-3.02,0-4.64-1.435-4.64-4.108Z" transform="translate(-0.39 0)"/>
      <path d="M989.06,517.425a1.875,1.875,0,0,1,1.857-1.892h.006a1.893,1.893,0,1,1-1.863,1.9Zm3.389,19.931H989.4V521.821h3.052Z" transform="translate(-0.39 0)"/>
      <path d="M998.368,521.821v-2.347c0-3.228,1.863-5.006,5.281-5.006a7.916,7.916,0,0,1,2.2.275v2.641a6.075,6.075,0,0,0-1.922-.275c-1.678,0-2.5.762-2.5,2.412v2.288h4.422v2.562h-4.425v12.973h-3.051V524.383h-3.6v-2.562Z" transform="translate(-0.39 0)"/>
      <path d="M1007.828,517.425a1.875,1.875,0,0,1,1.857-1.892h0a1.893,1.893,0,1,1,0,3.785h0a1.875,1.875,0,0,1-1.86-1.889Zm3.386,19.931h-3.052V521.821h3.052Z" transform="translate(-0.39 0)"/>
      <path d="M1026.414,533.051l1.831,1.983a8.589,8.589,0,0,1-6.136,2.594,8.057,8.057,0,0,1,0-16.112,8.8,8.8,0,0,1,6.256,2.594l-1.922,2.074a5.775,5.775,0,0,0-4.272-1.954,5.365,5.365,0,0,0,.062,10.714A5.666,5.666,0,0,0,1026.414,533.051Z" transform="translate(-0.39 0)"/>
      <path d="M1029.921,532.9c0-2.934,2.382-4.73,6.288-4.73a11,11,0,0,1,4.243.854v-1.646c0-2.2-1.315-3.3-3.785-3.3a11.047,11.047,0,0,0-4.821,1.314l-1.13-2.28a14.55,14.55,0,0,1,6.376-1.584c4.029,0,6.35,1.983,6.35,5.554v10.285h-2.99v-1.344a7.378,7.378,0,0,1-4.824,1.617C1032.242,537.628,1029.921,535.706,1029.921,532.9Zm6.411,2.474a5.975,5.975,0,0,0,4.108-1.467V531.22a8.082,8.082,0,0,0-4-.945c-2.227,0-3.6,1.006-3.6,2.562.012,1.5,1.415,2.535,3.492,2.535Z" transform="translate(-0.39 0)"/>
      <path d="M1048.354,524.383h-3.3v-2.562h3.3v-3.967l3.023-.734v4.7h4.577v2.562h-4.577V532.8c0,1.587.639,2.165,2.288,2.165a5.961,5.961,0,0,0,2.228-.367v2.565a10.081,10.081,0,0,1-2.9.458c-3.022,0-4.639-1.435-4.639-4.108Z" transform="translate(-0.39 0)"/>
      <path d="M1057.876,517.425a1.875,1.875,0,0,1,1.858-1.892h0a1.893,1.893,0,1,1-1.861,1.9Zm3.386,19.931h-3.051V521.821h3.051Z" transform="translate(-0.39 0)"/>
      <path d="M1072.249,521.516a8.073,8.073,0,1,1-8.1,8.052,7.974,7.974,0,0,1,7.892-8.053Zm5.067,8.052a5.091,5.091,0,1,0-5.067,5.4A5.185,5.185,0,0,0,1077.316,529.568Z" transform="translate(-0.39 0)"/>
      <path d="M1083.206,521.821h3.051v1.555a6.392,6.392,0,0,1,4.669-1.86,5.8,5.8,0,0,1,6.074,6.071v9.769h-3.055V528.1a3.612,3.612,0,0,0-3.844-3.935,4.4,4.4,0,0,0-3.844,2.013V537.35h-3.051Z" transform="translate(-0.39 0)"/>
    </g>
    <path d="M724.17,498.211c3.671,0,8.982-.757,8.982-5.123a4.132,4.132,0,0,0-.091-1l-2.186-9.5c-.5-2.09-.948-3.037-4.616-4.871-2.855-1.459-9.055-3.862-10.892-3.862-1.708,0-2.216,2.213-4.24,2.213-1.961,0-3.416-1.644-5.25-1.644-1.761,0-2.908,1.2-3.794,3.668,0,0-2.468,6.961-2.785,7.97a1.886,1.886,0,0,0-.07.569c0,2.706,10.66,11.579,24.942,11.579m9.551-3.351a14.59,14.59,0,0,1,.508,2.973c0,4.108-4.619,6.388-10.69,6.388-13.748,0-25.755-8.034-25.755-13.346a5.418,5.418,0,0,1,.443-2.151c-4.936.25-11.324,1.136-11.324,6.764,0,9.238,21.888,20.623,39.218,20.623,13.287,0,16.638-6.01,16.638-10.755,0-3.732-3.228-7.969-9.047-10.5" transform="translate(-0.39 0)" style="fill: #ed2724"/>
    <path d="M733.712,494.857a14.6,14.6,0,0,1,.508,2.973c0,4.108-4.619,6.388-10.69,6.388-13.739,0-25.746-8.031-25.746-13.343a5.418,5.418,0,0,1,.443-2.151l1.074-2.658a1.869,1.869,0,0,0-.073.566c0,2.706,10.66,11.579,24.942,11.579,3.671,0,8.982-.757,8.982-5.123a4.132,4.132,0,0,0-.091-1Z" transform="translate(-0.39 0)"/>
    <path d="M856.873,500.94c0,3.489,2.1,5.185,5.924,5.185a15.277,15.277,0,0,0,3.489-.493v-4.043a7.264,7.264,0,0,1-2.253.34c-1.576,0-2.16-.493-2.16-1.975v-6.2h4.566v-4.167h-4.566V484.3l-4.988,1.08v4.2h-3.31v4.167h3.3Zm-15.552.094c0-1.08,1.083-1.605,2.717-1.605a12.657,12.657,0,0,1,2.964.37v2.1a6.326,6.326,0,0,1-3.111.772c-1.6,0-2.561-.617-2.561-1.635m1.526,5.153a7.641,7.641,0,0,0,4.507-1.265v.989H852.3V495.447c0-3.979-2.682-6.162-7.157-6.162a18.219,18.219,0,0,0-7.629,1.79l1.79,3.674a13.324,13.324,0,0,1,4.939-1.3c2.054,0,3.116.8,3.116,2.438v.8a14.5,14.5,0,0,0-3.7-.463c-4.2,0-6.729,1.76-6.729,4.909,0,2.87,2.283,5.059,5.925,5.059m-27.125-.276h5.308v-8.466h8.888v8.457h5.308v-21.6h-5.3v8.3h-8.888v-8.3h-5.309Zm-20.215-8.187a4.133,4.133,0,0,1,4.29-4.137,5.048,5.048,0,0,1,3.456,1.267v5.7a4.8,4.8,0,0,1-3.456,1.3,4.153,4.153,0,0,1-4.29-4.135m7.808,8.178h4.939V483.228l-4.989,1.08v6.142a8.416,8.416,0,1,0-4.476,15.683h.145a7.368,7.368,0,0,0,4.381-1.417Zm-22.65-12.529a3.61,3.61,0,0,1,3.424,2.591h-6.81a3.4,3.4,0,0,1,3.395-2.591m-8.434,4.392a8.57,8.57,0,0,0,8.885,8.457,9.8,9.8,0,0,0,6.823-2.471l-3.3-2.934a4.414,4.414,0,0,1-3.269,1.235,4.219,4.219,0,0,1-4.014-2.591H789v-1.232c0-5.185-3.486-8.918-8.239-8.918a8.384,8.384,0,0,0-8.509,8.256c0,.066,0,.132,0,.2m-8.615-8.917a2.456,2.456,0,1,1,0,4.877h-5.247v-4.877ZM753.07,505.911h5.308v-7.87h4.041l4.076,7.87h5.924l-4.753-8.642a6.537,6.537,0,0,0,4.073-6.08c0-3.888-3.055-6.881-7.63-6.881h-11.03Z" transform="translate(-0.39 0)"/>
  </g>
</svg>
