<svg id="b1d7eec9-6d25-40c1-bd35-f399205d3ea2" data-name="Layer 1" xmlns="http://www.w3.org/2000/svg" xmlns:xlink="http://www.w3.org/1999/xlink" width="1050" height="1600" viewBox="0 0 1050 1600">
  <defs>
    <style>
      .e92b49c5-67a9-4536-8389-c2b34debd82a {
        opacity: 0.61;
      }

      .a42a10d8-e3d7-4fb1-84c5-e0fdb9c7d257 {
        fill: #bd2126;
      }

      .a255ae66-66f4-4387-8cf4-eef6a7466986 {
        fill: none;
        stroke: #fff;
        stroke-miterlimit: 10;
        stroke-width: 2px;
      }

      .ac554ff1-380d-4efd-a926-d9768d68c3e6 {
        fill: #fff;
      }

      .bd04a119-93d0-4f99-9996-1e40fd886f73 {
        fill: #ee2925;
      }
    </style>
  </defs>
  <rect class="a42a10d8-e3d7-4fb1-84c5-e0fdb9c7d257" width="353.3" height="1600"/>
  <text x="465" y="800" fill="#be0000" font-size="40px" font-family="Red Hat Medium"
    >_Course_Title_</text>
  <text x="465" y="1350" fill="#000000" font-size="24px" font-family="Red Hat Medium"
    >Product Name 1.0 skeleton</text>
  <text x="465" y="1465" fill="#be0000" font-size="20px" font-family="Red Hat Medium"
    >Student Workbook</text>
  <text x="465" y="1500" fill="#000000" font-size="20px" font-family="Red Hat Medium"
    >Edition 1</text>
  <g>
    <path class="a255ae66-66f4-4387-8cf4-eef6a7466986" d="M120.832,2.868V197.919A13.361,13.361,0,0,1,107.47,211.28H0"/>
    <line class="a255ae66-66f4-4387-8cf4-eef6a7466986" x1="228.337" y1="2.868" x2="228.337" y2="273.473"/>
    <path class="a255ae66-66f4-4387-8cf4-eef6a7466986" d="M0,318.785H107.671a13.161,13.161,0,0,1,13.161,13.161V700.827"/>
    <path class="a255ae66-66f4-4387-8cf4-eef6a7466986" d="M60.416,745.25H28.037a13.821,13.821,0,0,1-13.821-13.821V652.4a13.769,13.769,0,0,1,13.769-13.77H214.294a14.043,14.043,0,0,0,14.043-14.043V363.209"/>
    <rect class="a255ae66-66f4-4387-8cf4-eef6a7466986" x="71.966" y="713.265" width="105.728" height="63.081"/>
    <rect class="a255ae66-66f4-4387-8cf4-eef6a7466986" x="175.473" y="286.8" width="105.728" height="63.081"/>
    <path class="a255ae66-66f4-4387-8cf4-eef6a7466986" d="M121.276,789.674v51a12.968,12.968,0,0,1-12.968,12.968H0"/>
    <g>
      <path class="a255ae66-66f4-4387-8cf4-eef6a7466986" d="M191.021,745.25H218.1a10.236,10.236,0,0,1,10.235,10.235v690.934a11.061,11.061,0,0,0,11.062,11.062h85.679"/>
      <polygon class="ac554ff1-380d-4efd-a926-d9768d68c3e6" points="322.889 1464.96 335.841 1457.482 322.889 1450.003 322.889 1464.96"/>
    </g>
    <circle class="a255ae66-66f4-4387-8cf4-eef6a7466986" cx="96.542" cy="341.528" r="12.471"/>
    <circle class="a255ae66-66f4-4387-8cf4-eef6a7466986" cx="41.115" cy="663.001" r="12.471"/>
    <circle class="a255ae66-66f4-4387-8cf4-eef6a7466986" cx="202.96" cy="614.226" r="12.471"/>
  </g>
  <g>
    <path d="M467.234,697.628h16.614v2.588h-6.837v16.895h-2.922V700.216h-6.855Z"/>
    <path d="M484.627,702.945h2.783v1.809a4.433,4.433,0,0,1,3.907-2.116,3.509,3.509,0,0,1,1.42.224v2.5a4.753,4.753,0,0,0-1.643-.308,3.875,3.875,0,0,0-3.673,2.588v9.464h-2.794Z"/>
    <path d="M493.653,713.047c0-2.676,2.17-4.314,5.731-4.314a10.007,10.007,0,0,1,3.87.779v-1.5c0-2-1.2-3.008-3.452-3.008a10.08,10.08,0,0,0-4.4,1.2l-1.03-2.079a13.272,13.272,0,0,1,5.817-1.445c3.674,0,5.788,1.809,5.788,5.065v9.366h-2.726V715.9a6.725,6.725,0,0,1-4.4,1.475C495.767,717.36,493.653,715.607,493.653,713.047ZM499.5,715.3a5.44,5.44,0,0,0,3.746-1.338v-2.448a7.373,7.373,0,0,0-3.631-.862c-2.034,0-3.286.918-3.286,2.336C496.323,714.355,497.605,715.3,499.5,715.3Z"/>
    <path d="M508.876,698.937a1.71,1.71,0,0,1,1.693-1.726h0a1.726,1.726,0,1,1,0,3.452h0a1.71,1.71,0,0,1-1.7-1.723Zm3.087,18.174h-2.782V702.945h2.782Z"/>
    <path d="M515.247,702.945h2.783v1.418a5.834,5.834,0,0,1,4.257-1.7,5.288,5.288,0,0,1,5.539,5.536v8.908h-2.794v-8.439a3.3,3.3,0,0,0-3.5-3.589,4.015,4.015,0,0,0-3.508,1.836v10.187h-2.783Z"/>
    <path d="M530.719,698.937a1.71,1.71,0,0,1,1.693-1.726h.006a1.726,1.726,0,1,1-1.7,1.731Zm3.09,18.174h-2.783V702.945h2.783Z"/>
    <path d="M537.092,702.945h2.783v1.418a5.838,5.838,0,0,1,4.258-1.7,5.288,5.288,0,0,1,5.539,5.536v8.908h-2.783v-8.439a3.3,3.3,0,0,0-3.508-3.589,4.017,4.017,0,0,0-3.506,1.836v10.187h-2.783Z"/>
    <path d="M552.23,709.959a7.147,7.147,0,0,1,7.028-7.264c.051,0,.1,0,.154,0a6.96,6.96,0,0,1,4.2,1.418v-1.167h2.756V717.3c0,3.674-2.312,5.734-6.486,5.734a12.021,12.021,0,0,1-5.705-1.391l1.086-2.17A9.568,9.568,0,0,0,559.8,720.7c2.478,0,3.786-1.17,3.786-3.4v-1.587a6.667,6.667,0,0,1-4.23,1.517A7.143,7.143,0,0,1,552.23,709.959Zm7.46,4.84a5.028,5.028,0,0,0,3.9-1.64v-6.4a5.113,5.113,0,0,0-3.9-1.643,4.843,4.843,0,0,0,0,9.684Z"/>
    <path d="M574.744,713.047c0-2.676,2.171-4.314,5.732-4.314a10,10,0,0,1,3.869.779v-1.5c0-2-1.2-3.008-3.451-3.008a10.08,10.08,0,0,0-4.4,1.2l-1.03-2.079a13.272,13.272,0,0,1,5.817-1.445c3.674,0,5.788,1.809,5.788,5.065v9.366h-2.727V715.9a6.721,6.721,0,0,1-4.4,1.475C576.858,717.36,574.744,715.607,574.744,713.047Zm5.845,2.255a5.44,5.44,0,0,0,3.746-1.338v-2.448a7.38,7.38,0,0,0-3.645-.862c-2.033,0-3.286.918-3.286,2.336.011,1.365,1.293,2.312,3.185,2.312Z"/>
    <path d="M590.272,702.945h2.783v1.418a5.838,5.838,0,0,1,4.258-1.7,5.288,5.288,0,0,1,5.539,5.536v8.908h-2.783v-8.439a3.3,3.3,0,0,0-3.508-3.589,4.017,4.017,0,0,0-3.506,1.836v10.187h-2.783Z"/>
    <path d="M616.905,715.773a6.684,6.684,0,0,1-4.343,1.56,7.306,7.306,0,0,1,.057-14.61,7.229,7.229,0,0,1,4.257,1.4v-6.5l2.783-.612v20.1h-2.754Zm-3.952-.861a5.087,5.087,0,0,0,3.923-1.691V706.8a5.176,5.176,0,0,0-3.923-1.669,4.892,4.892,0,0,0,0,9.783Z"/>
    <g>
      <path d="M642.84,711.794l1.921,1.948a10.722,10.722,0,0,1-7.792,3.369,10.048,10.048,0,1,1,0-20.093,10.571,10.571,0,0,1,7.848,3.366l-1.948,2a7.742,7.742,0,0,0-5.9-2.676,7.347,7.347,0,0,0,.093,14.693A7.561,7.561,0,0,0,642.84,711.794Z"/>
      <path d="M653.527,717.055a7.3,7.3,0,0,1-7.431-7.348,7.118,7.118,0,0,1,7.1-7.289c3.9,0,6.844,3.227,6.844,7.4v.8H648.852a4.775,4.775,0,0,0,4.787,4.068,5.524,5.524,0,0,0,3.589-1.239l1.782,1.752A8.443,8.443,0,0,1,653.527,717.055Zm-4.648-8.515h8.4a4.225,4.225,0,0,0-8.4,0Z"/>
      <path d="M662.681,702.64h2.783v1.809a4.434,4.434,0,0,1,3.9-2.117,3.531,3.531,0,0,1,1.421.225v2.5a4.753,4.753,0,0,0-1.643-.308,3.877,3.877,0,0,0-3.674,2.588v9.464h-2.783Z"/>
      <path d="M674.953,704.976h-3V702.64h3v-3.618l2.756-.669v4.282h4.174v2.336h-4.161v7.677c0,1.448.583,1.975,2.087,1.975a5.449,5.449,0,0,0,2.031-.335v2.339a9.155,9.155,0,0,1-2.643.417c-2.754,0-4.231-1.308-4.231-3.746Z"/>
      <path d="M683.636,698.632a1.709,1.709,0,0,1,1.694-1.726h0a1.726,1.726,0,1,1-1.7,1.731Zm3.09,18.174h-2.782V702.64h2.782Z"/>
      <path d="M692.124,702.64V700.5c0-2.944,1.7-4.565,4.816-4.565a7.21,7.21,0,0,1,2,.251v2.408a5.533,5.533,0,0,0-1.752-.251c-1.531,0-2.283.7-2.283,2.2v2.088h4.033v2.336h-4.035V716.8h-2.783V704.976H688.84V702.64Z"/>
      <path d="M700.751,698.632a1.709,1.709,0,0,1,1.693-1.726h0a1.726,1.726,0,0,1,0,3.452h0a1.71,1.71,0,0,1-1.7-1.723Zm3.088,18.174h-2.783V702.64h2.783Z"/>
      <path d="M717.7,712.881l1.67,1.809a7.834,7.834,0,0,1-5.6,2.365,7.348,7.348,0,0,1,0-14.693,8.029,8.029,0,0,1,5.705,2.365l-1.753,1.892a5.266,5.266,0,0,0-3.9-1.782,4.893,4.893,0,0,0,.056,9.77A5.165,5.165,0,0,0,717.7,712.881Z"/>
      <path d="M720.9,712.742c0-2.676,2.173-4.314,5.734-4.314a10.026,10.026,0,0,1,3.87.779v-1.5c0-2-1.2-3.008-3.452-3.008a10.07,10.07,0,0,0-4.4,1.2l-1.03-2.079a13.265,13.265,0,0,1,5.815-1.445c3.674,0,5.79,1.809,5.79,5.065v9.379H730.5v-1.226a6.738,6.738,0,0,1-4.4,1.475C723.014,717.055,720.9,715.3,720.9,712.742ZM726.744,715a5.45,5.45,0,0,0,3.746-1.338v-2.448a7.374,7.374,0,0,0-3.647-.862c-2.031,0-3.283.918-3.283,2.336.01,1.365,1.289,2.312,3.184,2.312Z"/>
      <path d="M737.707,704.976h-3V702.64h3v-3.618l2.756-.669v4.282h4.174v2.336h-4.174v7.677c0,1.448.583,1.975,2.087,1.975a5.449,5.449,0,0,0,2.031-.335v2.339a9.191,9.191,0,0,1-2.644.417c-2.756,0-4.23-1.308-4.23-3.746Z"/>
      <path d="M746.39,698.632a1.709,1.709,0,0,1,1.694-1.726h0a1.726,1.726,0,1,1-1.7,1.729Zm3.088,18.174H746.7V702.64h2.783Z"/>
      <path d="M759.5,702.362a7.361,7.361,0,1,1-7.385,7.342,7.271,7.271,0,0,1,7.2-7.343Zm4.622,7.342a4.644,4.644,0,1,0-4.622,4.927A4.729,4.729,0,0,0,764.118,709.7Z"/>
      <path d="M769.488,702.64h2.783v1.418a5.826,5.826,0,0,1,4.257-1.7,5.288,5.288,0,0,1,5.539,5.536v8.908h-2.785v-8.439a3.3,3.3,0,0,0-3.506-3.589,4.016,4.016,0,0,0-3.5,1.836V716.8h-2.783Z"/>
    </g>
    <path class="bd04a119-93d0-4f99-9996-1e40fd886f73" d="M442.081,681.11c3.347,0,8.191-.69,8.191-4.672a3.754,3.754,0,0,0-.083-.915l-1.994-8.659c-.46-1.905-.864-2.77-4.209-4.442-2.6-1.33-8.258-3.521-9.933-3.521-1.557,0-2.02,2.017-3.866,2.017-1.788,0-3.115-1.5-4.787-1.5-1.606,0-2.652,1.094-3.46,3.345,0,0-2.251,6.347-2.54,7.267a1.719,1.719,0,0,0-.064.519c0,2.467,9.721,10.559,22.745,10.559m8.71-3.056a13.319,13.319,0,0,1,.463,2.711c0,3.746-4.212,5.825-9.749,5.825-12.536,0-23.486-7.326-23.486-12.169a4.941,4.941,0,0,1,.4-1.962c-4.5.228-10.327,1.036-10.327,6.168,0,8.424,19.96,18.806,35.763,18.806,12.117,0,15.172-5.48,15.172-9.807,0-3.4-2.943-7.268-8.249-9.574"/>
    <path d="M450.783,678.052a13.307,13.307,0,0,1,.463,2.71c0,3.747-4.212,5.826-9.749,5.826-12.528,0-23.478-7.324-23.478-12.167a4.941,4.941,0,0,1,.4-1.962l.979-2.424a1.734,1.734,0,0,0-.067.516c0,2.467,9.721,10.559,22.745,10.559,3.347,0,8.191-.69,8.191-4.672a3.754,3.754,0,0,0-.083-.915Z"/>
    <path d="M563.094,683.6c0,3.181,1.913,4.728,5.4,4.728a13.956,13.956,0,0,0,3.182-.45V684.19a6.665,6.665,0,0,1-2.055.311c-1.437,0-1.97-.45-1.97-1.8v-5.657h4.164v-3.8h-4.164v-4.816l-4.549.984v3.832h-3.018v3.8h3.01Zm-14.182.085c0-.984.987-1.463,2.478-1.463a11.5,11.5,0,0,1,2.7.337v1.913a5.755,5.755,0,0,1-2.836.7c-1.461,0-2.336-.562-2.336-1.491m1.391,4.7a6.965,6.965,0,0,0,4.11-1.153v.9h4.5V678.59c0-3.629-2.446-5.62-6.526-5.62a16.6,16.6,0,0,0-6.958,1.633l1.633,3.35a12.153,12.153,0,0,1,4.5-1.183c1.873,0,2.842.731,2.842,2.224v.73a13.312,13.312,0,0,0-3.377-.423c-3.829,0-6.136,1.606-6.136,4.477,0,2.617,2.082,4.613,5.4,4.613m-24.736-.251h4.841v-7.72h8.105v7.712h4.841v-19.7h-4.83V676h-8.105v-7.57h-4.841Zm-18.434-7.466a3.77,3.77,0,0,1,3.912-3.773,4.609,4.609,0,0,1,3.153,1.156v5.194a4.382,4.382,0,0,1-3.153,1.183,3.788,3.788,0,0,1-3.912-3.771m7.121,7.458h4.5V667.447l-4.549.985v5.6a7.674,7.674,0,1,0-4.081,14.3h.132a6.725,6.725,0,0,0,3.995-1.292ZM493.6,676.7a3.292,3.292,0,0,1,3.122,2.363h-6.21a3.1,3.1,0,0,1,3.1-2.363m-7.691,4.006a7.816,7.816,0,0,0,8.1,7.712,8.94,8.94,0,0,0,6.221-2.253l-3.013-2.676a4.025,4.025,0,0,1-2.981,1.126,3.849,3.849,0,0,1-3.66-2.363H501.2v-1.123c0-4.729-3.179-8.132-7.514-8.132a7.645,7.645,0,0,0-7.76,7.528c0,.061,0,.121,0,.181m-7.857-8.132a2.239,2.239,0,1,1,0,4.447h-4.784v-4.447Zm-9.633,15.563h4.841v-7.177h3.685l3.716,7.177h5.4l-4.335-7.881a5.958,5.958,0,0,0,3.714-5.544c0-3.546-2.785-6.275-6.957-6.275H468.443Z"/>
  </g>
</svg>
